<svg xmlns="http://www.w3.org/2000/svg" width="1200" height="420" viewBox="0 0 1200 420" role="img" aria-label="Cover">
  <defs>
    <linearGradient id="g0" x1="0" y1="0" x2="1" y2="1">
      <stop offset="0" stop-color="#0b2a33" />
      <stop offset="0.55" stop-color="#0f5a57" />
      <stop offset="1" stop-color="#ffb347" />
    </linearGradient>
    <radialGradient id="glow" cx="28%" cy="25%" r="65%">
      <stop offset="0" stop-color="rgba(0,179,164,0.55)" />
      <stop offset="1" stop-color="rgba(0,179,164,0)" />
    </radialGradient>
    <radialGradient id="glow2" cx="82%" cy="40%" r="60%">
      <stop offset="0" stop-color="rgba(255,61,90,0.45)" />
      <stop offset="1" stop-color="rgba(255,61,90,0)" />
    </radialGradient>
    <filter id="blur" x="-20%" y="-20%" width="140%" height="140%">
      <feGaussianBlur stdDeviation="18" />
    </filter>
  </defs>

  <rect width="1200" height="420" fill="url(#g0)" />
  <circle cx="260" cy="110" r="220" fill="url(#glow)" filter="url(#blur)" />
  <circle cx="980" cy="170" r="260" fill="url(#glow2)" filter="url(#blur)" />

  <path
    d="M0 320 C 220 280, 330 360, 520 330 C 740 295, 840 220, 1200 270 L 1200 420 L 0 420 Z"
    fill="rgba(255,255,255,0.10)"
  />
  <path
    d="M0 355 C 240 315, 360 390, 560 360 C 780 328, 910 258, 1200 305 L 1200 420 L 0 420 Z"
    fill="rgba(255,255,255,0.08)"
  />

  <text
    x="40"
    y="70"
    fill="rgba(255,255,255,0.55)"
    font-family="Trebuchet MS, Lucida Sans Unicode, Lucida Grande, sans-serif"
    font-size="28"
    font-weight="800"
    letter-spacing="2"
  >
    FAKEBOOK COVER
  </text>
</svg>

